<?xml version="1.0" encoding="UTF-8" standalone="no"?>
<!-- Created with Inkscape (http://www.inkscape.org/) -->

<svg
   xmlns:dc="http://purl.org/dc/elements/1.1/"
   xmlns:cc="http://creativecommons.org/ns#"
   xmlns:rdf="http://www.w3.org/1999/02/22-rdf-syntax-ns#"
   xmlns:svg="http://www.w3.org/2000/svg"
   xmlns="http://www.w3.org/2000/svg"
   xmlns:sodipodi="http://sodipodi.sourceforge.net/DTD/sodipodi-0.dtd"
   xmlns:inkscape="http://www.inkscape.org/namespaces/inkscape"
   width="103.01111mm"
   height="33.866913mm"
   viewBox="0 0 364.99999 120.00087"
   id="svg2"
   version="1.1"
   inkscape:version="0.91 r13725"
   sodipodi:docname="Mona.svg">
  <title
     id="title4228">Logo for Mona Theme</title>
  <defs
     id="defs4" />
  <sodipodi:namedview
     id="base"
     pagecolor="#ffffff"
     bordercolor="#666666"
     borderopacity="1.0"
     inkscape:pageopacity="0.0"
     inkscape:pageshadow="2"
     inkscape:zoom="1.979899"
     inkscape:cx="206.90586"
     inkscape:cy="115.52926"
     inkscape:document-units="px"
     inkscape:current-layer="layer1"
     showgrid="true"
     inkscape:snap-bbox="true"
     inkscape:bbox-nodes="true"
     inkscape:snap-bbox-edge-midpoints="false"
     inkscape:object-nodes="true"
     inkscape:object-paths="true"
     inkscape:snap-smooth-nodes="true"
     inkscape:snap-bbox-midpoints="false"
     inkscape:snap-nodes="false"
     fit-margin-top="0"
     fit-margin-left="0"
     fit-margin-right="0"
     fit-margin-bottom="0"
     inkscape:window-width="1920"
     inkscape:window-height="1056"
     inkscape:window-x="0"
     inkscape:window-y="24"
     inkscape:window-maximized="1">
    <inkscape:grid
       type="xygrid"
       id="grid3336"
       originx="-79.999998"
       originy="-900" />
  </sodipodi:namedview>
  <metadata
     id="metadata7">
    <rdf:RDF>
      <cc:Work
         rdf:about="">
        <dc:format>image/svg+xml</dc:format>
        <dc:type
           rdf:resource="http://purl.org/dc/dcmitype/StillImage" />
        <dc:title>Logo for Mona Theme</dc:title>
        <cc:license
           rdf:resource="http://creativecommons.org/licenses/by/3.0/" />
        <dc:creator>
          <cc:Agent>
            <dc:title>Leonard Siebeneicher</dc:title>
          </cc:Agent>
        </dc:creator>
      </cc:Work>
      <cc:License
         rdf:about="http://creativecommons.org/licenses/by/3.0/">
        <cc:permits
           rdf:resource="http://creativecommons.org/ns#Reproduction" />
        <cc:permits
           rdf:resource="http://creativecommons.org/ns#Distribution" />
        <cc:requires
           rdf:resource="http://creativecommons.org/ns#Notice" />
        <cc:requires
           rdf:resource="http://creativecommons.org/ns#Attribution" />
        <cc:permits
           rdf:resource="http://creativecommons.org/ns#DerivativeWorks" />
      </cc:License>
    </rdf:RDF>
  </metadata>
  <g
     inkscape:label="Layer 1"
     inkscape:groupmode="layer"
     id="layer1"
     transform="translate(-80,-32.361336)">
    <path
       style="opacity:1;fill:#000040;fill-opacity:1;stroke:none;stroke-width:5;stroke-miterlimit:4;stroke-dasharray:none;stroke-opacity:1"
       d="m 110,32.361328 a 30,40 0 0 0 -30,40 l 0,60.000002 20,0 0,-60.000002 a 20,20 0 0 1 20,-20 20,20 0 0 1 19.94531,18.556641 A 30,40 0 0 0 110,32.361328 Z m 60,0 a 30,40 0 0 0 -30,40 20,20 0 0 1 20,-20 20,20 0 0 1 20,20 l 0,60.000002 20,0 0,-60.000002 a 30,40 0 0 0 -30,-40 z"
       id="path3338"
       inkscape:connector-curvature="0" />
    <circle
       style="opacity:1;fill:#000040;fill-opacity:1;stroke:none;stroke-width:5;stroke-miterlimit:4;stroke-dasharray:none;stroke-opacity:1"
       id="path3405"
       cx="270"
       cy="102.36221"
       r="30" />
    <path
       style="opacity:1;fill:#ffd019;fill-opacity:1;stroke:none;stroke-width:5;stroke-miterlimit:4;stroke-dasharray:none;stroke-opacity:1"
       d="m 245,72.362203 c -16.56854,0 -30,13.431459 -30,29.999997 0,16.56854 13.43146,30 30,30 3.40975,-0.01 6.79285,-0.60109 10.00391,-1.74805 C 243.02715,126.3816 235.01427,115.06484 235,102.3622 c 0.0162,-12.699472 8.02681,-24.012939 20,-28.246091 -3.20948,-1.148522 -6.59123,-1.741649 -10,-1.753906 z"
       id="path3342"
       inkscape:connector-curvature="0"
       sodipodi:nodetypes="csccccc" />
    <path
       style="opacity:1;fill:#000040;fill-opacity:1;stroke:none;stroke-width:5;stroke-miterlimit:4;stroke-dasharray:none;stroke-opacity:1"
       d="m 315,72.362215 0,59.999985 10,0 10,0 0,-13.69336 c 0.0669,-15.31563 0.68532,-26.306625 5,-26.306625 5.52285,0 5,17.908605 5,39.999985 l 20,0 c 0,-33.13707 -8.9543,-59.999985 -20,-59.999985 -3.64419,0 -7.05755,2.938356 -10,8.046875 l 0,-8.046875 -20,0 z"
       id="path3346"
       inkscape:connector-curvature="0" />
    <path
       style="opacity:1;fill:#000040;fill-opacity:1;stroke:none;stroke-width:5;stroke-miterlimit:4;stroke-dasharray:none;stroke-opacity:1"
       d="m 405,72.362213 a 30,30 0 0 0 -30,29.999987 30,30 0 0 0 30,30 30,30 0 0 0 10,-1.75391 l 0,1.75391 20,0 0,-30 0,-29.999987 -20,0 0,1.75 a 30,30 0 0 0 -10,-1.75 z m 0,10 a 10,20 0 0 1 10,19.999987 10,20 0 0 1 -10,20 10,20 0 0 1 -10,-20 10,20 0 0 1 10,-19.999987 z"
       id="path3360"
       inkscape:connector-curvature="0" />
    <rect
       style="opacity:1;fill:#ffd019;fill-opacity:1;stroke:none;stroke-width:5;stroke-miterlimit:4;stroke-dasharray:none;stroke-opacity:1"
       id="rect3407"
       width="365"
       height="10"
       x="80"
       y="142.3622" />
  </g>
</svg>
